<svg width="119" height="24" viewBox="0 0 119 24" fill="none" xmlns="http://www.w3.org/2000/svg">
<path fill-rule="evenodd" clip-rule="evenodd" d="M10 4.17395H0V14.8261C0 17.5875 2.23858 19.8261 5 19.8261H15V9.17395C15 6.41253 12.7614 4.17395 10 4.17395ZM8 6.26091H2V12.7392C2 15.5006 4.23858 17.7392 7 17.7392H13V11.2609C13 8.49948 10.7614 6.26091 8 6.26091Z" fill="#A2A3A3"/>
<path d="M29.217 7.613H25.205V18H23.301V7.613H19.272V5.93H29.217V7.613ZM39.1478 16.317V18H30.8688V5.93H38.9948V7.613H32.7728V11.047H38.1618V12.628H32.7728V16.317H39.1478ZM40.447 11.88C40.447 11.1547 40.5773 10.435 40.838 9.721C41.0986 8.99567 41.4726 8.34967 41.96 7.783C42.4586 7.205 43.065 6.74033 43.779 6.389C44.493 6.03767 45.3033 5.862 46.21 5.862C47.2866 5.862 48.2103 6.10567 48.981 6.593C49.763 7.08033 50.3466 7.715 50.732 8.497L49.236 9.5C49.0773 9.13733 48.879 8.83133 48.641 8.582C48.403 8.33267 48.1423 8.13433 47.859 7.987C47.587 7.83967 47.3036 7.73767 47.009 7.681C46.7143 7.613 46.4253 7.579 46.142 7.579C45.53 7.579 44.986 7.70933 44.51 7.97C44.0453 8.21933 43.6543 8.55367 43.337 8.973C43.0196 9.39233 42.7816 9.86267 42.623 10.384C42.4643 10.9053 42.385 11.4267 42.385 11.948C42.385 12.5373 42.4756 13.0983 42.657 13.631C42.8496 14.1637 43.116 14.634 43.456 15.042C43.796 15.45 44.1983 15.7787 44.663 16.028C45.1276 16.266 45.6376 16.385 46.193 16.385C46.4763 16.385 46.771 16.351 47.077 16.283C47.3943 16.2037 47.689 16.0847 47.961 15.926C48.2443 15.756 48.505 15.5463 48.743 15.297C48.981 15.0477 49.1793 14.7473 49.338 14.396L50.919 15.297C50.7263 15.7503 50.4543 16.1527 50.103 16.504C49.763 16.844 49.3776 17.133 48.947 17.371C48.5163 17.609 48.0573 17.7903 47.57 17.915C47.0826 18.0397 46.601 18.102 46.125 18.102C45.2863 18.102 44.5213 17.9207 43.83 17.558C43.1386 17.1953 42.538 16.725 42.028 16.147C41.5293 15.5577 41.1383 14.8947 40.855 14.158C40.583 13.41 40.447 12.6507 40.447 11.88ZM62.6108 5.93V18H60.6898V12.679H54.6038V18H52.6998V5.93H54.6038V10.979H60.6898V5.93H62.6108ZM69.6176 5.981H71.4026L72.8816 10.078L74.3776 5.981H76.1796L74.1056 11.353L75.9246 15.79L79.6816 5.93H81.7556L76.7916 18H75.1426L72.8986 12.594L70.6376 18H69.0056L64.0416 5.93H66.0986L69.8896 15.79L71.6746 11.353L69.6176 5.981ZM87.6961 18.085C86.8461 18.085 86.0697 17.915 85.3671 17.575C84.6757 17.2237 84.0751 16.7647 83.5651 16.198C83.0664 15.62 82.6811 14.9627 82.4091 14.226C82.1371 13.4893 82.0011 12.7357 82.0011 11.965C82.0011 11.1603 82.1427 10.3897 82.4261 9.653C82.7207 8.91633 83.1231 8.26467 83.6331 7.698C84.1431 7.13133 84.7494 6.68367 85.4521 6.355C86.1547 6.015 86.9197 5.845 87.7471 5.845C88.5971 5.845 89.3677 6.02633 90.0591 6.389C90.7617 6.74033 91.3624 7.205 91.8611 7.783C92.3597 8.361 92.7451 9.01833 93.0171 9.755C93.2891 10.4803 93.4251 11.2227 93.4251 11.982C93.4251 12.7867 93.2777 13.5573 92.9831 14.294C92.6997 15.0307 92.3031 15.6823 91.7931 16.249C91.2831 16.8043 90.6767 17.252 89.9741 17.592C89.2827 17.9207 88.5234 18.085 87.6961 18.085ZM83.9391 11.965C83.9391 12.5317 84.0241 13.0813 84.1941 13.614C84.3754 14.1467 84.6304 14.617 84.9591 15.025C85.2877 15.433 85.6844 15.7617 86.1491 16.011C86.6137 16.249 87.1351 16.368 87.7131 16.368C88.3024 16.368 88.8294 16.2433 89.2941 15.994C89.7701 15.7333 90.1667 15.3933 90.4841 14.974C90.8127 14.5547 91.0621 14.0843 91.2321 13.563C91.4021 13.0417 91.4871 12.509 91.4871 11.965C91.4871 11.387 91.3964 10.8373 91.2151 10.316C91.0337 9.78333 90.7787 9.31867 90.4501 8.922C90.1214 8.514 89.7247 8.191 89.2601 7.953C88.7954 7.70367 88.2797 7.579 87.7131 7.579C87.1237 7.579 86.5911 7.70933 86.1151 7.97C85.6504 8.21933 85.2537 8.548 84.9251 8.956C84.6077 9.364 84.3641 9.83433 84.1941 10.367C84.0241 10.8883 83.9391 11.421 83.9391 11.965ZM100.38 18.085C99.5297 18.085 98.7533 17.915 98.0507 17.575C97.3593 17.2237 96.7587 16.7647 96.2487 16.198C95.75 15.62 95.3647 14.9627 95.0927 14.226C94.8207 13.4893 94.6847 12.7357 94.6847 11.965C94.6847 11.1603 94.8263 10.3897 95.1097 9.653C95.4043 8.91633 95.8067 8.26467 96.3167 7.698C96.8267 7.13133 97.433 6.68367 98.1357 6.355C98.8383 6.015 99.6033 5.845 100.431 5.845C101.281 5.845 102.051 6.02633 102.743 6.389C103.445 6.74033 104.046 7.205 104.545 7.783C105.043 8.361 105.429 9.01833 105.701 9.755C105.973 10.4803 106.109 11.2227 106.109 11.982C106.109 12.7867 105.961 13.5573 105.667 14.294C105.383 15.0307 104.987 15.6823 104.477 16.249C103.967 16.8043 103.36 17.252 102.658 17.592C101.966 17.9207 101.207 18.085 100.38 18.085ZM96.6227 11.965C96.6227 12.5317 96.7077 13.0813 96.8777 13.614C97.059 14.1467 97.314 14.617 97.6427 15.025C97.9713 15.433 98.368 15.7617 98.8327 16.011C99.2973 16.249 99.8187 16.368 100.397 16.368C100.986 16.368 101.513 16.2433 101.978 15.994C102.454 15.7333 102.85 15.3933 103.168 14.974C103.496 14.5547 103.746 14.0843 103.916 13.563C104.086 13.0417 104.171 12.509 104.171 11.965C104.171 11.387 104.08 10.8373 103.899 10.316C103.717 9.78333 103.462 9.31867 103.134 8.922C102.805 8.514 102.408 8.191 101.944 7.953C101.479 7.70367 100.963 7.579 100.397 7.579C99.8073 7.579 99.2747 7.70933 98.7987 7.97C98.334 8.21933 97.9373 8.548 97.6087 8.956C97.2913 9.364 97.0477 9.83433 96.8777 10.367C96.7077 10.8883 96.6227 11.421 96.6227 11.965ZM108.099 18V5.93H112.383C113.358 5.93 114.208 6.08867 114.933 6.406C115.67 6.72333 116.282 7.154 116.769 7.698C117.268 8.242 117.642 8.88233 117.891 9.619C118.141 10.3443 118.265 11.1207 118.265 11.948C118.265 12.866 118.124 13.699 117.84 14.447C117.568 15.1837 117.177 15.8183 116.667 16.351C116.157 16.8723 115.54 17.2803 114.814 17.575C114.089 17.8583 113.279 18 112.383 18H108.099ZM116.327 11.948C116.327 11.3133 116.237 10.7297 116.055 10.197C115.885 9.66433 115.63 9.211 115.29 8.837C114.95 8.45167 114.537 8.15133 114.049 7.936C113.562 7.72067 113.007 7.613 112.383 7.613H110.003V16.317H112.383C113.018 16.317 113.579 16.2093 114.066 15.994C114.565 15.7673 114.979 15.4613 115.307 15.076C115.647 14.6793 115.902 14.2147 116.072 13.682C116.242 13.1493 116.327 12.5713 116.327 11.948Z" fill="white" fill-opacity="0.6"/>
</svg>
