<svg width="40" height="40" viewBox="0 0 40 40" fill="none" xmlns="http://www.w3.org/2000/svg">
<g clip-path="url(#clip0_25_116)">
<path d="M19.9248 0C16.0631 0 12.3174 1.11055 9.0921 3.21148C8.73975 3.44102 8.63959 3.91367 8.86818 4.26734C9.09684 4.62102 9.56772 4.72148 9.92007 4.49211C12.8982 2.55219 16.3577 1.52672 19.9248 1.52672C30.0727 1.52672 38.3286 9.81383 38.3286 20C38.3286 30.1862 30.0727 38.4733 19.9248 38.4733C9.77693 38.4733 1.52098 30.1862 1.52098 20C1.52098 14.8057 3.7187 9.82156 7.55057 6.3257C7.86135 6.04211 7.88423 5.55937 7.60178 5.24734C7.31926 4.93531 6.83834 4.91227 6.52748 5.19594C2.37922 8.98055 0 14.3764 0 20C0 31.0281 8.93815 40 19.9248 40C30.9115 40 39.8496 31.0281 39.8496 20C39.8496 8.97187 30.9115 0 19.9248 0Z" fill="#F88500"/>
<path d="M33.4609 10.928C33.2274 10.5777 32.755 10.4834 32.406 10.718C32.0569 10.9523 31.9632 11.4266 32.1968 11.7769C33.8202 14.2128 34.6783 17.0562 34.6783 20C34.6783 28.1658 28.0599 34.8091 19.9248 34.8091C11.7898 34.8091 5.17137 28.1658 5.17137 20C5.17137 11.8342 11.7898 5.19086 19.9248 5.19086C23.8056 5.19086 27.47 6.69101 30.2431 9.415C30.5434 9.71 31.0249 9.70468 31.3185 9.40336C31.6124 9.10211 31.6071 8.61875 31.3069 8.3239C28.2478 5.31898 24.2057 3.66414 19.9248 3.66414C10.951 3.66414 3.65039 10.9923 3.65039 20C3.65039 29.0077 10.951 36.3359 19.9248 36.3359C28.8986 36.3359 36.1993 29.0077 36.1993 20C36.1993 16.753 35.2523 13.6159 33.4609 10.928Z" fill="#F88500"/>
<path d="M19.9247 8.34613C17.4185 8.34613 15.0321 9.13504 13.0234 10.6277C12.6858 10.8786 12.6148 11.3565 12.8646 11.6953C13.1147 12.0345 13.5909 12.1057 13.9283 11.8547C15.6732 10.5582 17.7467 9.87285 19.9247 9.87285C25.4879 9.87285 30.0138 14.416 30.0138 20C30.0138 24.6576 26.8744 28.6981 22.3793 29.8255C21.9718 29.9278 21.7241 30.3421 21.8259 30.7512C21.9123 31.0982 22.2224 31.3297 22.5632 31.3297C22.6242 31.3297 22.6863 31.3223 22.7483 31.3068C27.9216 30.009 31.5348 25.3596 31.5348 20C31.5348 13.5739 26.3266 8.34613 19.9247 8.34613Z" fill="#F88500"/>
<path d="M13.5426 27.8439C11.1867 25.9102 9.83568 23.0512 9.83568 20C9.83568 17.8885 10.4763 15.8655 11.6884 14.1496C11.9314 13.8057 11.8506 13.3292 11.508 13.0854C11.1654 12.8414 10.6907 12.9226 10.4477 13.2666C9.05223 15.2419 8.3147 17.5704 8.3147 20C8.3147 23.511 9.86922 26.8008 12.5798 29.0258C12.7211 29.1417 12.8916 29.1982 13.0608 29.1982C13.2811 29.1982 13.4996 29.1027 13.65 28.9181C13.9158 28.5916 13.8677 28.1107 13.5426 27.8439Z" fill="#F88500"/>
<path d="M26.5158 19.2366C26.0957 19.2366 25.7553 19.5783 25.7553 20C25.7553 23.2271 23.1399 25.8524 19.9249 25.8524C16.7099 25.8524 14.0945 23.2271 14.0945 20C14.0945 16.7729 16.7099 14.1476 19.9249 14.1476C20.345 14.1476 20.6854 13.8059 20.6854 13.3842C20.6854 12.9626 20.345 12.6208 19.9249 12.6208C15.8713 12.6208 12.5735 15.9311 12.5735 20C12.5735 24.0689 15.8713 27.3791 19.9249 27.3791C23.9785 27.3791 27.2763 24.0689 27.2763 20C27.2763 19.5783 26.9358 19.2366 26.5158 19.2366Z" fill="#F88500"/>
<path d="M19.9249 16.8957C18.2197 16.8957 16.8323 18.2883 16.8323 20C16.8323 21.7116 18.2197 23.1043 19.9249 23.1043C21.6301 23.1043 23.0175 21.7116 23.0175 20C23.0175 18.2883 21.6301 16.8957 19.9249 16.8957ZM19.9249 21.5776C19.0583 21.5776 18.3533 20.8699 18.3533 20C18.3533 19.1301 19.0583 18.4224 19.9249 18.4224C20.7916 18.4224 21.4966 19.1301 21.4966 20C21.4966 20.8699 20.7916 21.5776 19.9249 21.5776Z" fill="#F88500"/>
</g>
<defs>
<clipPath id="clip0_25_116">
<rect width="39.8496" height="40" fill="white"/>
</clipPath>
</defs>
</svg>
