<svg width="55" height="29" viewBox="0 0 55 29" fill="none" xmlns="http://www.w3.org/2000/svg">
<path d="M47.8055 23.104C46.2627 23.2908 44.3505 23.2021 42.6024 22.8627L42.024 22.7504L42.832 21.5987C44.2961 19.5115 45.2061 17.9284 46.1401 15.8437C47.0632 13.7828 47.6477 11.9336 48.0143 9.91327C48.2164 8.80025 48.4291 6.98074 48.3547 7.00212C48.3371 7.00717 48.235 7.40759 48.1277 7.89194C46.9952 13.0066 44.1669 18.2137 40.7893 21.4029C40.4126 21.7586 40.0764 22.0327 40.0423 22.012C39.6756 21.79 38.2936 20.4047 37.5933 19.5571C36.8771 18.6903 36.0135 17.2087 35.7727 16.4338C35.3104 14.9455 35.4183 13.7599 36.1337 12.4671C36.9972 10.9065 38.4729 9.54323 41.1849 7.80095C44.3679 5.75601 45.3198 5.0113 46.2941 3.80396C46.9848 2.94797 47.5273 1.75798 47.6872 0.748337C47.7359 0.440298 47.7938 0.182105 47.8157 0.174549C47.8843 0.150922 48.7632 1.18846 49.2901 1.91519C50.0711 2.99237 50.7432 4.101 51.3145 5.2545C54.6415 11.9726 54.956 18.2234 52.1125 21.1131C51.6053 21.6285 50.9873 22.0735 50.379 22.3616C49.7479 22.6605 48.5038 23.0194 47.8061 23.1038L47.8055 23.104ZM31.3179 27.7421C28.3714 28.341 25.5553 28.203 22.7712 27.3228C19.7673 26.3736 16.542 24.2749 14.4021 21.8771C13.4514 20.8117 12.8574 19.9697 11.4073 17.6319C10.6557 16.4202 9.88747 15.2458 9.63317 14.9199C7.63057 12.3532 5.23751 11.037 0.989786 10.1666L0.355025 10.0364L0.680578 9.8254C1.17911 9.50222 2.29945 8.93633 3.02148 8.64298C4.11721 8.19784 6.95422 7.46661 8.46034 7.24115C13.9609 6.41766 20.285 6.70142 25.8287 8.02052C28.9655 8.76688 32.0293 9.94764 34.1199 11.2157L34.6418 11.5323L34.2189 12.4424C33.7569 13.4365 33.627 13.9495 33.635 14.7492C33.6524 16.4979 34.7523 18.4529 36.7855 20.3485C37.0904 20.6328 37.335 20.8759 37.3291 20.8887C37.3231 20.9015 37.1306 20.7835 36.9012 20.6265C32.2919 17.471 27.5371 15.227 22.5099 13.8345C21.2277 13.4794 18.4889 12.8679 18.354 12.9066C18.336 12.9118 19.0093 13.1774 19.8503 13.4967C23.9188 15.0417 27.3694 16.7086 30.4893 18.6356C31.6167 19.3319 33.6163 20.7655 34.5144 21.5211C35.7843 22.5894 37.0907 23.9514 37.5267 24.6615L37.7442 25.0156L37.2384 25.3432C35.6943 26.3438 33.1751 27.3644 31.3183 27.7417L31.3179 27.7421ZM37.4867 21.051C37.4442 21.0253 37.4169 20.9882 37.4259 20.9687C37.4349 20.9491 37.4819 20.9667 37.5302 21.0077C37.6306 21.0928 37.6023 21.121 37.4867 21.051Z" fill="#F88500"/>
</svg>
